<svg xmlns="http://www.w3.org/2000/svg" viewBox="0 0 768 768"><defs><style>.cls-1{fill:#e0b2c2;}.cls-2{fill:#fff;}.cls-3{fill:#ff0068;opacity:0.3;}.cls-4{fill:#edd1e4;}.cls-5{font-size:206.42px;fill:#bc8fa0;font-family:OverpassMono-Regular, Overpass Mono;}</style></defs><title>cuteid-icon</title><g id="Layer_1" data-name="Layer 1"><rect class="cls-1" width="768" height="768" rx="384"/></g><g id="Layer_2" data-name="Layer 2"><circle cx="222" cy="297.54" r="96.54"/><circle class="cls-2" cx="192.47" cy="268.01" r="40.89"/><circle class="cls-2" cx="244.71" cy="320.25" r="21.58"/><circle cx="540" cy="297.54" r="96.54"/><circle class="cls-2" cx="510.47" cy="268.01" r="40.89"/><circle class="cls-2" cx="562.71" cy="320.25" r="21.58"/><path class="cls-3" d="M383.84,519c47.36,0,85.75-30.51,85.75-68.14H298.09C298.09,488.49,336.48,519,383.84,519Z"/></g><g id="Layer_5" data-name="Layer 5"><path class="cls-4" d="M265.31,503.19h0a124,124,0,0,0-175.36,0L39.44,553.7A385.64,385.64,0,0,0,215,728.89l50.34-50.34A124,124,0,0,0,265.31,503.19Z"/><path class="cls-4" d="M503.69,503.19h0a124,124,0,0,0,0,175.36l50,50A385.64,385.64,0,0,0,728.89,553l-49.84-49.84A124,124,0,0,0,503.69,503.19Z"/></g><g id="Layer_6" data-name="Layer 6"><text class="cls-5" transform="translate(127.77 642.97)"><tspan xml:space="preserve">i  d</tspan></text></g></svg>