<svg xmlns="http://www.w3.org/2000/svg" viewBox="0 0 768 768">
  <defs/>
  <rect width="768" height="768" fill="#e0b2c2" data-name="Layer 1" rx="384"/>
  <g data-name="Layer 2">
    <circle cx="222" cy="297.54" r="96.54"/>
    <circle cx="192.47" cy="268.01" r="40.89" fill="#fff"/>
    <circle cx="244.71" cy="320.25" r="21.58" fill="#fff"/>
    <circle cx="540" cy="297.54" r="96.54"/>
    <circle cx="510.47" cy="268.01" r="40.89" fill="#fff"/>
    <circle cx="562.71" cy="320.25" r="21.58" fill="#fff"/>
    <path fill="#ff0068" d="M383.84 519c47.36 0 85.75-30.51 85.75-68.14h-171.5c0 37.63 38.39 68.14 85.75 68.14z" opacity=".3"/>
  </g>
  <path fill="#edd1e4" d="M265.31 503.19a124 124 0 00-175.36 0L39.44 553.7A385.64 385.64 0 00215 728.89l50.34-50.34a124 124 0 00-.03-175.36zm238.38 0a124 124 0 000 175.36l50 50A385.64 385.64 0 00728.89 553l-49.84-49.84a124 124 0 00-175.36.03z" data-name="Layer 5"/>
  <path fill="#bc8fa0" d="M202.7 627.29h29.1V643h-75.75v-15.71h29.1v-74.11h-29.1V537.5h46.65zm-8.88-109.2a10.93 10.93 0 01-10.94-10.94 11.15 11.15 0 013.2-8 10.37 10.37 0 017.74-3.3 10.63 10.63 0 018 3.3 11.15 11.15 0 013.2 8 10.48 10.48 0 01-3.2 7.85 11 11 0 01-8 3.09zM569.5 645.45q-21.06 0-33.23-14.86t-12.18-40.46q0-25.59 12.28-40.35T569.29 535q16.94 0 28.49 9.91V502.4l17.55-8.46V643h-17.55v-8.7q-10.32 11.16-28.28 11.15zm2.27-16.31q17.75 0 26-14.45v-50q-9.09-13.62-26.22-13.62-14.23 0-21.88 10.11t-7.63 28.9q0 16.93 8.05 28a25.45 25.45 0 0021.68 11.06z"/>
</svg>